<svg xmlns="http://www.w3.org/2000/svg" xml:space="preserve" id="Слой_1" width="257.3" height="303.5" x="0" y="0" version="1.1"><style id="style1" type="text/css">.st0{fill:#353f47}</style><g id="g76" transform="translate(-121.3 -97.9)"><g id="g4"><path id="path1" d="M148.8 317.6c-9.9.1-14 3.1-14 8 0 14.6 40.6 4.3 40.6 31.9 0 11.9-8.6 21.4-27.6 21.4-12.3 0-22.1-4.6-25.9-8.9v-15.6c4.3 7.2 13.5 12.8 26 12.8 9.9 0 14.5-3.4 14.5-9.2 0-14.9-40.5-3.9-40.5-32.2 0-12.5 10-19.9 26.9-19.9 10.9.1 19.1 3.3 23.1 6.4v17.5c-4.1-6.3-12.7-12.3-23.1-12.2z" class="st0"/><path id="path2" d="M235.2 347.1h-32.5v19h37.4v11.6h-50V307H239v11.6h-36.3v16.9h32.5z" class="st0"/><path id="path3" d="M319.8 377.7h-13.4l-6.8-16.8h-32.4l-6.7 16.8h-12.8l28.7-70.7h14.3zm-24.9-28.3-11.6-29-11.6 29z" class="st0"/><path id="path4" d="M376.9 350.2h-34.5v27.6h-12.6v-70.7h48.8v11.6h-36.2v19.9h34.5z" class="st0"/></g><g id="g36"><path id="path5" d="M126.2 395c-.2-.2-.4-.3-.6-.5-.2-.1-.5-.3-.7-.3-.2 0-.5-.1-.8-.1-.6 0-1 .1-1.3.3-.3.2-.4.5-.4.8 0 .2.1.5.2.6.1.2.3.3.5.4.2.1.5.2.8.3l.9.3.9.3c.3.1.5.3.8.4.3.1.4.4.5.6.1.3.2.6.2.9 0 .3-.1.7-.2.9-.1.3-.3.5-.6.7-.2.2-.5.4-.9.5-.4.1-.8.2-1.2.2-.4 0-.7 0-1-.1-.3-.1-.6-.1-.9-.2-.3-.1-.5-.2-.7-.3-.2-.1-.3-.2-.4-.4v-1.5c.1.2.3.4.5.6.2.2.4.4.7.5.3.1.6.3.9.4.3.1.7.1 1 .1.5 0 1-.1 1.3-.3.3-.2.5-.6.5-1 0-.3-.1-.6-.4-.8-.2-.2-.5-.3-.9-.5-.4-.1-.7-.2-1.1-.4-.4-.2-.8-.3-1.1-.4-.4-.2-.6-.4-.9-.7-.2-.3-.4-.7-.4-1.2 0-.3.1-.7.2-.9.1-.3.3-.5.6-.7.3-.2.6-.3.9-.4.3-.1.7-.1 1.1-.1.3 0 .6 0 .9.1.3.1.5.1.8.2l.6.3c.2.1.3.2.4.3v1.6c-.3-.1-.5-.3-.7-.5z" class="st0"/><path id="path6" d="M128.9 401.3v-8h3.3c.4 0 .8 0 1.1.1.3.1.6.2.8.4.2.2.4.4.5.6.1.2.2.5.2.9 0 1-.4 1.6-1.3 1.9.5.1.9.3 1.2.6.2.3.4.7.4 1.3 0 .4-.1.8-.2 1.1-.1.3-.4.5-.6.7-.3.2-.6.3-1 .4-.4.1-.8.1-1.3.1h-3.1zm3.1-4.5c.2 0 .5 0 .7-.1l.6-.3c.2-.1.3-.3.4-.4.1-.2.1-.4.1-.6 0-.4-.1-.7-.4-.9-.3-.2-.7-.3-1.3-.3H130v2.6zm0 3.6c.6 0 1.1-.1 1.5-.3.3-.2.5-.6.5-1.1 0-.3 0-.5-.1-.6-.1-.1-.2-.3-.4-.4-.2-.1-.4-.2-.6-.2-.2 0-.5-.1-.8-.1H130v2.7z" class="st0"/><path id="path7" d="M142 397.6h-4v2.8h4.6v.9H137v-8h5.5v.9H138v2.5h4z" class="st0"/><path id="path8" d="M147.6 398.5h-2.1v2.8h-1v-8h2.6c1.1 0 2 .2 2.6.6.6.4.9 1.1.9 2 0 .6-.1 1.1-.4 1.5-.3.4-.7.7-1.3.9l2.4 3H150Zm-2.2-4.3v3.5h1.5c.8 0 1.4-.1 1.8-.4.4-.3.6-.7.6-1.4 0-.6-.2-1-.6-1.3-.4-.3-1-.4-1.8-.4z" class="st0"/><path id="path9" d="M160.6 397.6h-4v2.8h4.6v.9h-5.6v-8h5.5v.9h-4.4v2.5h4v.9z" class="st0"/><path id="path10" d="M164 394.9v6.4h-1v-8h1.1l5.1 6.4v-6.4h1v8h-1.1z" class="st0"/><path id="path11" d="M178.2 394.2h-2.9v7.1h-1v-7.1h-2.9v-.9h6.8z" class="st0"/><path id="path12" d="M184.5 397.6h-4v2.8h4.6v.9h-5.6v-8h5.5v.9h-4.4v2.5h4v.9z" class="st0"/><path id="path13" d="M190.1 398.5H188v2.8h-1v-8h2.6c1.1 0 2 .2 2.6.6.6.4.9 1.1.9 2 0 .6-.1 1.1-.4 1.5-.3.4-.7.7-1.3.9l2.4 3h-1.3zm-2.2-4.3v3.5h1.5c.8 0 1.4-.1 1.8-.4.4-.3.6-.7.6-1.4 0-.6-.2-1-.6-1.3-.4-.2-1-.4-1.8-.4z" class="st0"/><path id="path14" d="M196.1 398.5v2.8h-1v-8h2.6c1.1 0 2 .2 2.6.6.6.4.9 1.1.9 2 0 .9-.3 1.6-.9 2-.6.4-1.4.7-2.5.7h-1.7zm0-4.3v3.5h1.5c.8 0 1.4-.1 1.8-.4.4-.3.6-.7.6-1.4 0-.6-.2-1-.6-1.3-.4-.2-1-.4-1.8-.4z" class="st0"/><path id="path15" d="M206 398.5h-2.1v2.8h-1v-8h2.6c1.1 0 2 .2 2.6.6.6.4.9 1.1.9 2 0 .6-.1 1.1-.4 1.5-.3.4-.7.7-1.3.9l2.4 3h-1.3zm-2.1-4.3v3.5h1.5c.8 0 1.4-.1 1.8-.4.4-.3.6-.7.6-1.4 0-.6-.2-1-.6-1.3-.4-.2-1-.4-1.8-.4z" class="st0"/><path id="path16" d="M212 401.3h-1v-8h1z" class="st0"/><path id="path17" d="M219 395c-.2-.2-.4-.3-.6-.5-.2-.1-.5-.3-.7-.3-.2 0-.5-.1-.8-.1-.6 0-1 .1-1.3.3-.3.2-.4.5-.4.8 0 .2.1.5.2.6.1.2.3.3.5.4.2.1.5.2.8.3l.9.3.9.3c.3.1.5.3.8.4.2.2.4.4.5.6.1.2.2.6.2.9 0 .3-.1.7-.2.9-.1.3-.3.5-.6.7-.2.2-.5.4-.9.5-.4.1-.8.2-1.2.2-.4 0-.7 0-1-.1-.3-.1-.6-.1-.9-.2-.3-.1-.5-.2-.7-.3-.2-.1-.3-.2-.4-.4v-1.5c.1.2.3.4.5.6.2.2.4.4.7.5.3.1.6.3.9.4.3.1.7.1 1 .1.5 0 1-.1 1.3-.3.3-.2.5-.6.5-1 0-.3-.1-.6-.4-.8-.2-.2-.5-.3-.9-.5-.4-.1-.7-.2-1.1-.4-.4-.2-.8-.3-1.1-.4-.4-.2-.6-.4-.9-.7-.2-.3-.4-.7-.4-1.2 0-.3.1-.7.2-.9.1-.3.3-.5.6-.7.3-.2.6-.3.9-.4.3-.1.7-.1 1.1-.1.3 0 .6 0 .9.1.3.1.5.1.8.2l.6.3c.2.1.3.2.4.3v1.6c-.4-.1-.5-.3-.7-.5z" class="st0"/><path id="path18" d="M226.7 397.6h-4v2.8h4.6v.9h-5.6v-8h5.5v.9h-4.4v2.5h4v.9z" class="st0"/><path id="path19" d="M238.9 401.3h-1.1l-.9-2.2H233l-.9 2.2H231l3.3-8h1.2zm-2.4-3.1-1.6-3.9-1.6 3.9z" class="st0"/><path id="path20" d="M243.3 398.5h-2.1v2.8h-1v-8h2.6c1.1 0 2 .2 2.6.6.6.4.9 1.1.9 2 0 .6-.1 1.1-.4 1.5-.3.4-.7.7-1.3.9l2.4 3h-1.3zm-2.2-4.3v3.5h1.5c.8 0 1.4-.1 1.8-.4.4-.3.6-.7.6-1.4 0-.6-.2-1-.6-1.3-.4-.2-1-.4-1.8-.4z" class="st0"/><path id="path21" d="m254.7 400.4-.4.4-.6.3c-.2.1-.5.2-.8.2-.3.1-.6.1-1 .1-.6 0-1.2-.1-1.7-.3-.5-.2-1-.5-1.3-.8-.3-.3-.6-.8-.8-1.3-.2-.5-.3-1.1-.3-1.7 0-.6.1-1.1.3-1.7.2-.6.5-.9.8-1.3.3-.4.8-.7 1.3-.9.5-.2 1.1-.3 1.8-.3.3 0 .6 0 .9.1.3 0 .5.1.8.2l.6.3c.2.1.3.2.4.3v1.6c-.1-.2-.3-.4-.4-.6-.2-.2-.4-.3-.6-.5-.2-.1-.5-.3-.8-.3-.3-.1-.6-.1-.9-.1-.5 0-.9.1-1.3.2-.4.2-.7.4-1 .7-.3.3-.5.6-.6 1-.1.4-.2.8-.2 1.3s.1.9.2 1.3.3.7.6 1c.3.3.6.5 1 .7.4.2.8.3 1.3.3.4 0 .7 0 1-.1.3-.1.6-.2.8-.4.2-.2.5-.3.6-.5.2-.2.3-.4.4-.6v1.4z" class="st0"/><path id="path22" d="M262.2 397.6h-4.9v3.7h-1v-8h1v3.5h4.9v-3.5h1v8h-1z" class="st0"/><path id="path23" d="M266.6 401.3h-1v-8h1z" class="st0"/><path id="path24" d="M274.6 394.2h-2.9v7.1h-1v-7.1h-2.9v-.9h6.8z" class="st0"/><path id="path25" d="M280.9 397.6h-4v2.8h4.6v.9h-5.6v-8h5.5v.9H277v2.5h4v.9z" class="st0"/><path id="path26" d="m289.5 400.4-.4.4-.6.3c-.2.1-.5.2-.8.2-.3.1-.6.1-1 .1-.6 0-1.2-.1-1.7-.3-.5-.2-1-.5-1.3-.8-.3-.3-.6-.8-.8-1.3-.2-.5-.3-1.1-.3-1.7 0-.6.1-1.1.3-1.7.2-.6.5-.9.8-1.3.3-.4.8-.7 1.3-.9.5-.2 1.1-.3 1.8-.3.3 0 .6 0 .9.1.3 0 .5.1.8.2l.6.3c.2.1.3.2.4.3v1.6c-.1-.2-.3-.4-.4-.6-.2-.2-.4-.3-.6-.5-.2-.1-.5-.3-.8-.3-.3-.1-.6-.1-.9-.1-.5 0-.9.1-1.3.2-.4.2-.7.4-1 .7-.3.3-.5.6-.6 1-.1.4-.2.8-.2 1.3s.1.9.2 1.3.3.7.6 1c.3.3.6.5 1 .7.4.2.8.3 1.3.3.4 0 .7 0 1-.1.3-.1.6-.2.8-.4.2-.2.5-.3.6-.5.2-.2.3-.4.4-.6v1.4z" class="st0"/><path id="path27" d="M296.9 394.2H294v7.1h-1v-7.1h-2.9v-.9h6.8z" class="st0"/><path id="path28" d="M306.4 398h-4.2v3.3h-1v-8h5.5v.9h-4.4v2.9h4.2v.9z" class="st0"/><path id="path29" d="M311.5 398.5h-2.1v2.8h-1v-8h2.6c1.1 0 2 .2 2.6.6.6.4.9 1.1.9 2 0 .6-.1 1.1-.4 1.5-.3.4-.7.7-1.3.9l2.4 3h-1.3zm-2.2-4.3v3.5h1.5c.8 0 1.4-.1 1.8-.4.4-.3.6-.7.6-1.4 0-.6-.2-1-.6-1.3-.4-.2-1-.4-1.8-.4z" class="st0"/><path id="path30" d="M323.3 401.3h-1.1l-.9-2.2h-3.9l-.9 2.2h-1.1l3.3-8h1.2zm-2.4-3.1-1.6-3.9-1.6 3.9z" class="st0"/><path id="path31" d="m332 394.8-3 4.8h-.4l-3-4.7v6.4h-1v-8h1.3l3.1 4.9 3-4.9h1.1v8h-1v-6.5z" class="st0"/><path id="path32" d="M340.3 397.6h-4v2.8h4.6v.9h-5.6v-8h5.5v.9h-4.4v2.5h4v.9z" class="st0"/><path id="path33" d="M341.8 393.2h1.1l1.6 6.4 2.1-6.4h1l2.1 6.4 1.6-6.4h1l-1.9 8h-1l-2.2-6.6-2.2 6.6h-1.1z" class="st0"/><path id="path34" d="M352.9 397.3c0-.6.1-1.1.3-1.7.2-.6.5-.9.8-1.3.3-.4.8-.7 1.3-.9.5-.2 1.1-.3 1.8-.3.6 0 1.2.1 1.7.3.5.2 1 .5 1.3.8.3.3.6.8.8 1.3.2.5.3 1.1.3 1.7 0 .6-.1 1.1-.3 1.7-.2.5-.5.9-.8 1.3-.4.4-.8.7-1.3.9-.5.2-1.1.3-1.8.3s-1.2-.1-1.8-.3c-.5-.2-1-.5-1.3-.8-.3-.3-.6-.8-.8-1.3-.2-.5-.2-1.1-.2-1.7zm1.1 0c0 .5.1.9.2 1.3s.3.7.6 1c.3.3.6.5 1 .7.4.2.8.3 1.4.3.5 0 .9-.1 1.3-.2.4-.2.7-.4 1-.7.3-.3.5-.6.6-1 .1-.4.2-.8.2-1.3s-.1-.9-.2-1.3-.3-.7-.6-1c-.3-.3-.6-.5-1-.7-.4-.2-.8-.3-1.4-.3-.5 0-.9.1-1.3.2-.4.2-.7.4-1 .7-.3.3-.5.6-.6 1-.1.3-.2.8-.2 1.3z" class="st0"/><path id="path35" d="M366.3 398.5h-2.1v2.8h-1v-8h2.6c1.1 0 2 .2 2.6.6.6.4.9 1.1.9 2 0 .6-.1 1.1-.4 1.5-.3.4-.7.7-1.3.9l2.4 3h-1.3zm-2.2-4.3v3.5h1.5c.8 0 1.4-.1 1.8-.4.4-.3.6-.7.6-1.4 0-.6-.2-1-.6-1.3-.4-.2-1-.4-1.8-.4z" class="st0"/><path id="path36" d="M372.2 401.3h-1v-8h1v3.6h1.3l3.1-3.6h1.3l-3.5 3.9 3.9 4.2h-1.4l-3.5-3.7H372v3.6z" class="st0"/></g><g id="g75"><g id="g41"><g id="g38"><g id="g37"><path id="path37" d="m267.3 202.2-.1-48.8 29.3 24.7v25c-3.4 1.5-5.8 4.9-5.8 8.9 0 5.3 4.3 9.6 9.6 9.6s9.6-4.3 9.6-9.7c0-3.9-2.4-7.3-5.7-8.8v-28.6l-44.7-37.7.1 58.9-13.4-11.3.1 93.8h7.7l-.1-77.2 5.7 4.8.1 72.4 63.1-.1V249Zm37 10.1c-.2 2-1.9 3.5-3.9 3.5-1.8 0-3.4-1.3-3.8-3-.1-.3-.1-.6-.1-1 0-.3 0-.6.1-.9.4-1.7 2-3 3.8-3 2 0 3.7 1.5 3.9 3.5zm10.8 58-47.7.1-.1-58.2 47.8 40.3z" style="fill:#042c71"/></g></g><g id="g40"><g id="g39"><path id="path38" d="M249.9 97.9c-5.3 0-9.6 4.3-9.6 9.6 0 3.9 2.4 7.3 5.8 8.8l.1 37.7-5.6 4.8-.1-42-44.6 37.9.1 42-18.4 15.7.1 65.9 63.1-.1-.2-109.3 13.3-11.3-.1-41.2c3.4-1.5 5.8-4.9 5.8-8.8 0-5.4-4.3-9.7-9.7-9.7zm-50 154.8c1.9 0 3.5 1.4 3.9 3.2 0 .2.1.5.1.7 0 2.2-1.8 3.9-3.9 3.9-2.2 0-3.9-1.8-3.9-3.9 0-.3 0-.5.1-.8.2-1.8 1.8-3.1 3.7-3.1zm33.1 17.8-47.7.1-.1-54.7 10.7-9.1.1 41c-3.4 1.5-5.8 4.9-5.8 8.8 0 5.3 4.3 9.6 9.6 9.6s9.6-4.3 9.6-9.7c0-3.9-2.4-7.3-5.8-8.8l-.1-47.5 29.2-24.8zm-.2-105.2-29.2 24.8-.1-31.9 29.2-24.8zm20.9-56.6c-.5 1.6-2 2.7-3.7 2.7-1.7 0-3.2-1.1-3.7-2.7-.1-.4-.2-.8-.2-1.2 0-2.2 1.8-3.9 3.9-3.9 2.2 0 3.9 1.7 3.9 3.9 0 .4-.1.9-.2 1.2z" style="fill:#f36b1c"/></g></g></g><g id="g74"><g id="g57"><g id="g48"><linearGradient id="SVGID_1_" x1="187.689" x2="316.128" y1="156.842" y2="285.281" gradientTransform="translate(-2.126 1.655)" gradientUnits="userSpaceOnUse"><stop id="stop41" offset="0" style="stop-color:#8ac8fa"/><stop id="stop42" offset=".14" style="stop-color:#79d7dc"/><stop id="stop43" offset=".31" style="stop-color:#67e6bd"/><stop id="stop44" offset=".69" style="stop-color:#61d690"/><stop id="stop45" offset=".75" style="stop-color:#69d886"/><stop id="stop46" offset=".86" style="stop-color:#7edd6c"/><stop id="stop47" offset="1" style="stop-color:#9fe641"/><stop id="stop48" offset="1" style="stop-color:#a0e640"/></linearGradient><path id="path48" d="m267.3 202.2-.1-48.8 29.3 24.7v25c-3.4 1.5-5.8 4.9-5.8 8.9 0 5.3 4.3 9.6 9.6 9.6s9.6-4.3 9.6-9.7c0-3.9-2.4-7.3-5.7-8.8v-28.6l-44.7-37.7.1 58.9-13.4-11.3.1 93.8h7.7l-.1-77.2 5.7 4.8.1 72.4 63.1-.1V249Zm37 10.1c-.2 2-1.9 3.5-3.9 3.5-1.8 0-3.4-1.3-3.8-3-.1-.3-.1-.6-.1-1 0-.3 0-.6.1-.9.4-1.7 2-3 3.8-3 2 0 3.7 1.5 3.9 3.5zm10.8 58-47.7.1-.1-58.2 47.8 40.3z" style="fill:url(#SVGID_1_)"/></g><g id="g56"><linearGradient id="SVGID_2_" x1="187.689" x2="316.128" y1="156.842" y2="285.281" gradientTransform="translate(-2.126 1.655)" gradientUnits="userSpaceOnUse"><stop id="stop49" offset="0" style="stop-color:#8ac8fa"/><stop id="stop50" offset=".14" style="stop-color:#79d7dc"/><stop id="stop51" offset=".31" style="stop-color:#67e6bd"/><stop id="stop52" offset=".69" style="stop-color:#61d690"/><stop id="stop53" offset=".75" style="stop-color:#69d886"/><stop id="stop54" offset=".86" style="stop-color:#7edd6c"/><stop id="stop55" offset="1" style="stop-color:#9fe641"/><stop id="stop56" offset="1" style="stop-color:#a0e640"/></linearGradient><path id="path56" d="m267.3 202.2-.1-48.8 29.3 24.7v25c-3.4 1.5-5.8 4.9-5.8 8.9 0 5.3 4.3 9.6 9.6 9.6s9.6-4.3 9.6-9.7c0-3.9-2.4-7.3-5.7-8.8v-28.6l-44.7-37.7.1 58.9-13.4-11.3.1 93.8h7.7l-.1-77.2 5.7 4.8.1 72.4 63.1-.1V249Zm37 10.1c-.2 2-1.9 3.5-3.9 3.5-1.8 0-3.4-1.3-3.8-3-.1-.3-.1-.6-.1-1 0-.3 0-.6.1-.9.4-1.7 2-3 3.8-3 2 0 3.7 1.5 3.9 3.5zm10.8 58-47.7.1-.1-58.2 47.8 40.3z" style="fill:url(#SVGID_2_)"/></g></g><g id="g73"><g id="g64"><linearGradient id="SVGID_3_" x1="187.689" x2="316.128" y1="156.842" y2="285.281" gradientTransform="translate(-2.126 1.655)" gradientUnits="userSpaceOnUse"><stop id="stop57" offset="0" style="stop-color:#8ac8fa"/><stop id="stop58" offset=".14" style="stop-color:#79d7dc"/><stop id="stop59" offset=".31" style="stop-color:#67e6bd"/><stop id="stop60" offset=".69" style="stop-color:#61d690"/><stop id="stop61" offset=".75" style="stop-color:#69d886"/><stop id="stop62" offset=".86" style="stop-color:#7edd6c"/><stop id="stop63" offset="1" style="stop-color:#9fe641"/><stop id="stop64" offset="1" style="stop-color:#a0e640"/></linearGradient><path id="path64" d="M249.9 97.9c-5.3 0-9.6 4.3-9.6 9.6 0 3.9 2.4 7.3 5.8 8.8l.1 37.7-5.6 4.8-.1-42-44.6 37.9.1 42-18.4 15.7.1 65.9 63.1-.1-.2-109.3 13.3-11.3-.1-41.2c3.4-1.5 5.8-4.9 5.8-8.8 0-5.4-4.3-9.7-9.7-9.7zm-50 154.8c1.9 0 3.5 1.4 3.9 3.2 0 .2.1.5.1.7 0 2.2-1.8 3.9-3.9 3.9-2.2 0-3.9-1.8-3.9-3.9 0-.3 0-.5.1-.8.2-1.8 1.8-3.1 3.7-3.1zm33.1 17.8-47.7.1-.1-54.7 10.7-9.1.1 41c-3.4 1.5-5.8 4.9-5.8 8.8 0 5.3 4.3 9.6 9.6 9.6s9.6-4.3 9.6-9.7c0-3.9-2.4-7.3-5.8-8.8l-.1-47.5 29.2-24.8zm-.2-105.2-29.2 24.8-.1-31.9 29.2-24.8zm20.9-56.6c-.5 1.6-2 2.7-3.7 2.7-1.7 0-3.2-1.1-3.7-2.7-.1-.4-.2-.8-.2-1.2 0-2.2 1.8-3.9 3.9-3.9 2.2 0 3.9 1.7 3.9 3.9 0 .4-.1.9-.2 1.2z" style="fill:url(#SVGID_3_)"/></g><g id="g72"><linearGradient id="SVGID_4_" x1="187.689" x2="316.128" y1="156.842" y2="285.281" gradientTransform="translate(-2.126 1.655)" gradientUnits="userSpaceOnUse"><stop id="stop65" offset="0" style="stop-color:#8ac8fa"/><stop id="stop66" offset=".14" style="stop-color:#79d7dc"/><stop id="stop67" offset=".31" style="stop-color:#67e6bd"/><stop id="stop68" offset=".69" style="stop-color:#61d690"/><stop id="stop69" offset=".75" style="stop-color:#69d886"/><stop id="stop70" offset=".86" style="stop-color:#7edd6c"/><stop id="stop71" offset="1" style="stop-color:#9fe641"/><stop id="stop72" offset="1" style="stop-color:#a0e640"/></linearGradient><path id="path72" d="M249.9 97.9c-5.3 0-9.6 4.3-9.6 9.6 0 3.9 2.4 7.3 5.8 8.8l.1 37.7-5.6 4.8-.1-42-44.6 37.9.1 42-18.4 15.7.1 65.9 63.1-.1-.2-109.3 13.3-11.3-.1-41.2c3.4-1.5 5.8-4.9 5.8-8.8 0-5.4-4.3-9.7-9.7-9.7zm-50 154.8c1.9 0 3.5 1.4 3.9 3.2 0 .2.1.5.1.7 0 2.2-1.8 3.9-3.9 3.9-2.2 0-3.9-1.8-3.9-3.9 0-.3 0-.5.1-.8.2-1.8 1.8-3.1 3.7-3.1zm33.1 17.8-47.7.1-.1-54.7 10.7-9.1.1 41c-3.4 1.5-5.8 4.9-5.8 8.8 0 5.3 4.3 9.6 9.6 9.6s9.6-4.3 9.6-9.7c0-3.9-2.4-7.3-5.8-8.8l-.1-47.5 29.2-24.8zm-.2-105.2-29.2 24.8-.1-31.9 29.2-24.8zm20.9-56.6c-.5 1.6-2 2.7-3.7 2.7-1.7 0-3.2-1.1-3.7-2.7-.1-.4-.2-.8-.2-1.2 0-2.2 1.8-3.9 3.9-3.9 2.2 0 3.9 1.7 3.9 3.9 0 .4-.1.9-.2 1.2z" style="fill:url(#SVGID_4_)"/></g></g></g></g></g></svg>